<svg width="50" height="96" viewBox="0 0 50 96" fill="none" xmlns="http://www.w3.org/2000/svg">
<path d="M20.9411 94.84C20.4606 94.8087 19.9997 95.0001 19.5192 95.0587C19.0505 95.0587 18.5075 95.0782 18.0075 94.84C17.5192 94.6095 17.1169 94.1915 16.9372 93.6681C16.8474 93.4063 16.8161 93.1368 16.8357 92.8595C16.8474 92.7189 16.8747 92.5899 16.9255 92.4493C16.9646 92.3712 17.0036 92.2774 17.0544 92.211C17.113 92.1329 17.2263 92.0626 17.3239 92.0392C17.7458 91.9493 18.0154 92.2306 18.1755 92.3399C18.3669 92.4806 18.5544 92.6095 18.7458 92.7306C19.1364 92.9806 19.5466 93.1915 19.9763 93.3712C20.4177 93.5704 20.7966 93.6524 21.3357 93.8595C21.5974 94.0509 21.7654 94.3087 21.7068 94.6602C21.6052 94.8204 21.5466 94.7384 21.4881 94.7696L21.3084 94.7892C21.1716 94.8009 21.0505 94.8204 20.9411 94.84ZM20.9411 94.84C21.0622 94.8204 21.1716 94.7892 21.281 94.7384C21.3396 94.7189 21.3903 94.6876 21.4411 94.6681C21.4802 94.6564 21.5817 94.5783 21.5114 94.6173C21.4528 94.4884 21.2614 94.3165 21.1013 94.3087C20.7419 94.1681 20.2028 94.0275 19.7732 93.8283C19.3239 93.6368 18.8943 93.4064 18.4724 93.1486C18.2614 93.0197 18.0622 92.879 17.8708 92.7267C17.6716 92.5665 17.5193 92.4767 17.4489 92.5079C17.4177 92.4962 17.4294 92.547 17.3903 92.5978C17.3591 92.6876 17.3396 92.7892 17.3317 92.8868C17.3122 93.0861 17.3435 93.297 17.4021 93.4884C17.531 93.8673 17.8317 94.1876 18.2106 94.3673C18.5817 94.547 19.031 94.547 19.4997 94.5392C19.9802 94.629 20.4607 94.84 20.9411 94.84Z" fill="black"/>
<path d="M28.63 93.941C28.751 93.2028 28.3409 92.5191 27.8018 92.1793C27.3018 91.7575 26.5909 91.6207 25.9112 91.6481C24.5206 91.7067 23.1729 92.3981 22.2901 93.4762C22.0792 93.7457 21.8487 94.0465 21.7901 94.3043C21.7315 94.5543 21.8604 94.6442 22.2198 94.7028C22.919 94.8043 23.63 94.7926 24.3292 94.691C25.0402 94.5817 25.7394 94.4098 26.4503 94.2301C27.173 94.1403 27.8995 94.0113 28.63 93.941ZM28.63 93.941L26.5714 94.7223C25.8604 94.902 25.1416 95.0738 24.3994 95.191C23.6494 95.3004 22.8877 95.3121 22.1377 95.2028C21.9463 95.1715 21.7159 95.1324 21.4971 94.941C21.2784 94.7496 21.2276 94.4215 21.2862 94.2028C21.4073 93.7418 21.6651 93.4723 21.8877 93.1637C22.8565 91.984 24.3291 91.2145 25.8682 91.152C26.63 91.1207 27.4581 91.273 28.0988 91.7926C28.6925 92.359 28.9698 93.2496 28.63 93.941Z" fill="black"/>
<path d="M28.6799 93.73C29.4495 93.5815 30.1994 93.3706 30.8908 93.0581C31.6096 92.8276 32.301 92.4995 32.9299 92.0776C33.5588 91.6674 34.1487 91.1792 34.4807 90.5385C34.8206 89.9291 34.8089 89.1166 34.4104 88.5971C34.012 88.0659 33.1995 88.0073 32.5706 88.2963C31.93 88.5776 31.4495 89.1752 31.0706 89.8275C30.68 90.476 30.3714 91.2064 29.8714 91.8666C29.7308 92.0151 29.5824 92.1674 29.4222 92.2963C29.2503 92.4369 29.1136 92.5072 29.012 92.6557C28.8206 92.9487 28.719 93.3393 28.6799 93.73ZM28.6799 93.73C28.6213 93.3393 28.6292 92.9292 28.7893 92.5307C28.8674 92.3198 29.051 92.1518 29.1604 92.0307C29.2815 91.8901 29.3791 91.73 29.4807 91.5698C29.9299 90.98 30.2424 90.269 30.6526 89.5815C31.0511 88.9018 31.5823 88.2026 32.3831 87.851C33.1331 87.4994 34.2229 87.5424 34.8128 88.3002C35.3714 89.0307 35.3441 90.0307 34.9339 90.7807C34.5355 91.5424 33.8753 92.0698 33.2151 92.4995C32.5432 92.9409 31.8167 93.2808 31.0549 93.5386C30.2619 93.7105 29.4611 93.7885 28.6799 93.73Z" fill="black"/>
<path d="M38.0195 79.27C38.2304 78.8794 38.4687 78.5083 38.6992 78.1294C38.9882 77.8091 39.2773 77.5005 39.371 77.1607C39.4726 76.8013 39.3593 76.5201 39.0429 76.3013C38.7421 76.0904 38.2539 75.8911 37.9531 75.5005C37.6641 75.1489 37.4531 75.0318 37.0937 75.1724C36.7656 75.3013 36.4219 75.5825 36.125 75.8638C35.8242 76.1529 35.5664 76.4732 35.3359 76.8247C35.0352 77.1255 34.7969 77.4849 34.5547 77.8638C34.6055 77.4224 34.7344 76.9849 34.9062 76.5552C35.1562 76.1763 35.4375 75.817 35.7656 75.5044C36.1055 75.1958 36.4375 74.8951 36.914 74.7037C37.1445 74.6138 37.4531 74.5747 37.7343 74.6919C38.0156 74.813 38.1757 75.0123 38.3125 75.1724C38.5625 75.4927 38.914 75.6216 39.3242 75.8912C39.5234 76.0318 39.7226 76.2193 39.8359 76.4927C39.9374 76.7623 39.9257 77.0435 39.8554 77.2935C39.707 77.8052 39.3554 78.1451 39.0859 78.4654C38.7187 78.731 38.3906 79.0122 38.0195 79.27Z" fill="black"/>
<path d="M36.6412 74.422C36.3014 74.1916 35.981 73.9533 35.6412 73.7619C35.3521 73.5002 35.0514 73.2619 34.731 73.0431C34.1099 72.6017 33.3716 72.3713 32.8013 72.8127C32.2232 73.2424 31.6529 73.8439 31.3794 74.5041C31.2388 74.8322 31.1802 75.1955 31.231 75.5432C31.1919 75.9025 31.2701 76.2814 31.481 76.633C31.1216 76.4337 30.8599 76.0314 30.731 75.6018C30.6802 75.1604 30.7505 74.7033 30.9224 74.3127C31.274 73.5041 31.8443 72.9143 32.5318 72.3908C32.8912 72.129 33.4029 72.0001 33.8521 72.1017C34.3013 72.1798 34.6802 72.4025 35.0318 72.633C35.3716 72.8634 35.692 73.1212 36.0006 73.383C36.2193 73.7111 36.4615 74.0509 36.6412 74.422Z" fill="black"/>
<path d="M28.1212 77.629C28.0704 77.1095 27.8712 76.6485 27.5704 76.2696C27.3516 75.8477 27.0196 75.4883 26.6485 75.168C26.2696 74.8477 25.8477 74.5782 25.418 74.2969C24.9961 74.0274 24.5586 73.7657 24.1992 73.8672C23.8398 73.9688 23.4375 74.3985 23.0703 74.7071C22.6992 75.0352 22.3516 75.3985 22.0703 75.7969C21.7891 76.1952 21.6094 76.6367 21.5508 77.1055C21.4023 77.5547 21.4023 78.0664 21.582 78.5547C21.2227 78.1757 21.0508 77.6054 21.0508 77.043C21.1211 76.4922 21.3516 75.9649 21.6602 75.5235C21.9688 75.0742 22.3516 74.6953 22.7305 74.3438L23.3203 73.832C23.5195 73.6719 23.75 73.4727 24.0703 73.3906C24.75 73.2305 25.2695 73.6289 25.6914 73.8789C26.1211 74.1602 26.5625 74.4375 26.9726 74.7891C27.3828 75.1289 27.7538 75.5391 28.0117 76.0274C28.2109 76.5508 28.2813 77.1212 28.1212 77.629Z" fill="black"/>
<path d="M32.2695 72.43C32.2383 71.9613 31.9883 71.5902 31.668 71.3402C31.4062 71.0199 31.0469 70.809 30.6485 70.6098C30.25 70.4105 29.8203 70.2387 29.4102 69.9808C29.0117 69.7308 28.6602 69.4301 28.2891 69.2816C27.5508 68.9105 26.8282 69.6019 26.4805 70.3714C26.2891 70.7503 26.1797 71.1722 26.1289 71.5902C26 72.0121 25.9687 72.4496 25.9805 72.9183C25.7695 72.4964 25.6719 72.0277 25.6406 71.5394C25.6914 71.059 25.8203 70.5902 26.0391 70.1488C26.25 69.7191 26.5273 69.2973 26.9492 68.9886C27.3594 68.6605 28.0078 68.5902 28.4804 68.8167C28.9609 69.016 29.3085 69.3285 29.6796 69.555C30.039 69.7855 30.4609 69.9535 30.8788 70.1566C31.289 70.3558 31.7304 70.6253 32.0585 71.0081C32.3202 71.4417 32.4687 71.9886 32.2695 72.43Z" fill="black"/>
<path d="M36.2695 69.18C36 68.9496 35.8008 68.6605 35.5898 68.3792C35.4609 68.0707 35.3281 67.7699 35.168 67.5082C35.0078 67.2464 34.7969 67.0082 34.5781 66.8792C34.3672 66.7699 34.0273 66.7503 33.7969 66.8207C33.5977 66.8792 33.4258 67.141 33.2578 67.43C33.086 67.7191 32.9297 68.0003 32.7969 68.2894C32.668 68.5785 32.5859 68.8675 32.5664 69.1683C32.4649 69.4574 32.4453 69.7777 32.5156 70.1293C32.2656 69.8793 32.125 69.5199 32.0664 69.141C32.0859 68.7699 32.1953 68.4105 32.3359 68.0902C32.4766 67.7621 32.6562 67.4691 32.8242 67.18C32.9961 66.9105 33.1758 66.5316 33.625 66.3519C34.0352 66.2425 34.4141 66.2503 34.8047 66.4417C35.1641 66.6527 35.3945 66.9417 35.5859 67.2503C35.7774 67.5589 35.9063 67.8792 36.0352 68.18C36.1094 68.5316 36.1797 68.8402 36.2695 69.18Z" fill="black"/>
<path d="M39.6474 76.629C39.6982 76.2501 39.7177 75.8673 39.7177 75.4884C39.7177 75.297 39.6982 75.1173 39.6865 74.9298C39.6865 74.7502 39.706 74.5588 39.6982 74.3713C39.6865 73.6213 39.5966 72.883 39.4989 72.1213C39.3974 71.3713 39.2802 70.6329 39.0107 69.9493C38.749 69.2775 38.331 68.6603 37.7412 68.2775L38.0302 68.2579C37.4716 68.7189 37.0498 69.3477 36.8193 70.0391C36.7607 70.211 36.7295 70.3907 36.6904 70.5704C36.6396 70.7501 36.5889 70.9219 36.5498 71.1094C36.4795 71.4805 36.4717 71.8594 36.499 72.2578C36.3389 71.8985 36.2373 71.5078 36.21 71.0976C36.1904 70.8984 36.1904 70.6875 36.1982 70.4765C36.2295 70.2773 36.2998 70.0781 36.3467 69.875C36.6084 69.0937 37.0771 68.3867 37.7178 67.8633L38.0068 67.8438C38.7061 68.3047 39.1787 69.0156 39.4677 69.7539C39.7568 70.5039 39.8779 71.2851 39.9873 72.0351C40.0888 72.7969 40.1787 73.5663 40.1982 74.3438C40.1982 74.5352 40.2099 74.7344 40.1865 74.9336C40.1552 75.125 40.1084 75.3242 40.0576 75.5117C39.9599 75.9219 39.8271 76.2892 39.6474 76.629Z" fill="black"/>
<path d="M17.5778 89.199C17.2497 89.2107 16.9294 89.1794 16.5974 89.1404C16.2575 89.1208 15.9567 88.9685 15.656 88.8318C15.0661 88.5427 14.5154 88.1599 14.0154 87.742L14.4138 87.6131C14.1521 88.6443 14.2732 89.7733 14.7536 90.7225C14.9919 91.1912 15.3318 91.6131 15.7341 91.9725C15.9529 92.1326 16.1247 92.3319 16.3239 92.5311C16.5232 92.7225 16.7458 92.9022 16.9724 93.0701C16.6911 93.0193 16.4138 92.9217 16.1443 92.8084C15.8747 92.699 15.6052 92.5584 15.3943 92.3475C14.9529 91.9568 14.574 91.4881 14.3045 90.9491C13.7732 89.8905 13.6326 88.6405 13.9256 87.4882L14.324 87.3593C14.7927 87.7577 15.3045 88.121 15.8552 88.3905C16.1364 88.5194 16.4255 88.6209 16.6833 88.8006C16.988 88.9412 17.281 89.0701 17.5778 89.199Z" fill="black"/>
<path d="M15.8086 87.328C15.8867 87.0468 16.1679 86.8593 16.4375 86.7577C16.6992 86.6484 16.9687 86.5585 17.1757 86.4374C17.625 86.2968 17.6875 85.8671 17.4648 85.4179C17.0156 84.5273 16.0742 83.8788 15.2656 83.1484C14.8554 82.8203 14.4258 82.3672 14.0468 82.1484C13.8554 82.0586 13.707 82.0703 13.5781 82.1992C13.4491 82.3281 13.3593 82.5703 13.3163 82.8086C13.2265 83.3203 13.1874 83.8594 13.1952 84.3867C13.1249 84.9179 13.1171 85.4648 13.1367 86.0156C12.9257 85.5039 12.7968 84.957 12.6952 84.3945C12.6835 83.8242 12.7265 83.2734 12.8242 82.7031C12.8827 82.414 12.9726 82.1015 13.2226 81.832C13.4726 81.5429 13.9843 81.5117 14.2617 81.6914C14.5625 81.8398 14.7617 82.0508 14.9609 82.2226L15.582 82.7617C16.3711 83.5 17.332 84.1133 17.9023 85.2031C18.0312 85.4843 18.1211 85.8046 18.0429 86.164C17.9648 86.5351 17.6328 86.8047 17.3437 86.9023C16.7617 87.0586 16.1993 86.8984 15.8086 87.328Z" fill="black"/>
<path d="M18.5586 80.281C18.3984 79.8122 18.207 79.3708 17.957 78.9607C17.7851 78.531 17.5586 78.1208 17.2773 77.7419C16.9961 77.3708 16.6757 77.0309 16.3164 76.7302C15.9765 76.4606 15.5156 76.152 15.168 76.0583C14.8984 75.9567 14.6562 76.4294 14.4297 76.8395C14.2109 77.2614 14.0391 77.6989 13.9102 78.1481C13.7812 78.5974 13.6992 79.07 13.6719 79.5387C13.5508 79.9997 13.5 80.4801 13.4727 80.9801C13.3008 80.5114 13.2227 80.0114 13.1719 79.4996C13.2031 78.9996 13.293 78.4996 13.4336 78.0113C13.5742 77.523 13.7539 77.0504 13.9844 76.6129C14.1055 76.3825 14.2148 76.1832 14.3828 75.9528C14.5234 75.7223 14.9141 75.484 15.2539 75.5739C15.5742 75.6325 15.7734 75.7848 16.0039 75.902C16.2227 76.0309 16.4336 76.1832 16.6328 76.3434C17.0313 76.6637 17.3828 77.0348 17.6836 77.445C17.9844 77.8552 18.2344 78.3044 18.4219 78.7731C18.5508 79.2809 18.6093 79.781 18.5586 80.281Z" fill="black"/>
<path d="M21.48 74.762C21.6284 74.262 21.4995 73.7815 21.2495 73.3909C21.0893 72.9612 20.769 72.6097 20.4214 72.262C20.0698 71.9105 19.6831 71.5628 19.3628 71.1526C19.0542 70.762 18.7339 70.4339 18.3433 70.4612C17.9526 70.4807 17.5425 70.7698 17.2144 71.1096C16.8745 71.4495 16.5855 71.8401 16.355 72.2581C16.1245 72.6799 15.9565 73.137 15.8433 73.6096C15.6519 74.0589 15.5542 74.5511 15.4839 75.0588C15.355 74.5588 15.3237 74.0276 15.355 73.5002C15.4761 72.9885 15.6558 72.4807 15.9136 72.0197C16.1753 71.5588 16.4839 71.1213 16.8628 70.7502C17.2339 70.3909 17.6909 70.0002 18.3237 69.9612C18.644 69.9417 18.9643 70.0706 19.1831 70.2502C19.4135 70.4299 19.5815 70.6409 19.7417 70.8401C20.0424 71.2307 20.4018 71.551 20.7729 71.9182C21.1322 72.2776 21.5033 72.6994 21.7143 73.219C21.8588 73.7307 21.8276 74.3596 21.48 74.762Z" fill="black"/>
<path d="M25.6719 69.91C25.6915 69.4608 25.5938 69.0506 25.3907 68.6912C25.2813 68.3123 25.0626 67.9607 24.8008 67.6404C24.2618 67.0193 23.582 66.4216 22.8125 66.2185C22.0508 66.0076 21.2422 66.3904 20.7031 66.988C20.4336 67.2888 20.2149 67.6482 20.0234 68.0271C19.7617 68.367 19.543 68.7576 19.293 69.1365C19.3516 68.6873 19.4531 68.2576 19.5742 67.8084C19.7734 67.3983 20.0156 66.9999 20.3359 66.6482C20.9453 65.9568 21.957 65.4568 22.9375 65.7264C23.8868 65.9881 24.5781 66.6248 25.1875 67.3045C25.4883 67.656 25.7383 68.074 25.8789 68.5233C25.9414 69.0115 25.8907 69.5116 25.6719 69.91Z" fill="black"/>
<path d="M20.4292 66.262C20.3277 65.7933 20.1988 65.3519 19.9683 64.9729C19.8277 64.5628 19.6089 64.1722 19.3277 63.8245C19.0464 63.4847 18.7183 63.1839 18.3472 62.9652C17.9761 62.7464 17.5464 62.5862 17.2378 62.7152C16.9292 62.8362 16.6362 63.2659 16.3276 63.6058L15.4058 64.6644C15.0972 65.0238 14.7964 65.3558 14.5972 65.7347C14.3354 66.0628 14.1675 66.4964 14.2378 66.973C13.9683 66.5628 13.9995 65.9925 14.1597 65.5042C14.3979 65.0432 14.73 64.6839 15.0308 64.3323L15.9526 63.2737C16.2729 62.9455 16.4917 62.512 17.0542 62.2425C17.6558 62.0237 18.1948 62.2933 18.605 62.5315C19.0347 62.7815 19.4136 63.1214 19.7261 63.5003C20.0347 63.8909 20.2769 64.3284 20.4449 64.7894C20.5308 65.2894 20.5386 65.7893 20.4292 66.262Z" fill="black"/>
<path d="M16.1023 70.84C15.8406 70.4611 15.6218 70.0705 15.3836 69.6916C15.2234 69.2814 15.075 68.8517 14.8953 68.4728C14.7156 68.0939 14.4734 67.7618 14.1453 67.6329C13.825 67.504 13.4148 67.5626 13.075 67.7423C12.3953 68.1134 12.075 68.9923 11.9266 69.8009C11.8563 70.1994 11.9461 70.5392 12.2156 70.8321C12.4148 71.1837 12.7664 71.4728 13.1062 71.7735C12.6648 71.6446 12.2469 71.4845 11.8445 71.1642C11.493 70.8048 11.3328 70.2032 11.4344 69.7228C11.6141 68.8321 11.9227 67.8322 12.8328 67.3009C13.2625 67.0626 13.8211 66.961 14.3328 67.1602C14.8445 67.3712 15.1414 67.8321 15.3445 68.2383C15.5437 68.668 15.6843 69.0782 15.8562 69.4883C15.9421 69.9493 16.0398 70.3907 16.1023 70.84Z" fill="black"/>
<path d="M25.4889 83.609C26.028 83.3004 26.0983 82.6286 25.9108 82.1871C25.7897 81.7184 25.3522 81.3356 24.86 81.0973C24.36 80.8591 23.7897 80.7458 23.2116 80.5973C22.6217 80.4762 22.0319 80.1364 21.5397 79.9762C21.028 79.7966 20.6178 80.027 20.278 80.4958C19.9381 80.945 19.6374 81.445 19.4069 81.9646C19.1764 82.4841 18.9655 83.0427 19.0358 83.5427C18.9967 84.0114 19.3952 84.613 20.0163 84.5622C19.4264 84.8434 18.6765 84.2926 18.5475 83.613C18.4693 82.9137 18.7272 82.3239 18.9576 81.7614C19.2076 81.2028 19.5162 80.6716 19.899 80.1833C20.0904 79.945 20.3209 79.6833 20.6608 79.5348C21.0006 79.3747 21.3912 79.4059 21.6999 79.4958C22.3288 79.7145 22.778 79.9957 23.3601 80.1168C23.9186 80.2653 24.532 80.3786 25.0984 80.6559C25.6569 80.9254 26.2273 81.3747 26.4187 82.0661C26.489 82.738 26.1295 83.5113 25.4889 83.609Z" fill="black"/>
<path d="M32.8975 80.84C33.0772 80.3596 32.7959 79.9611 32.4483 79.719C32.1397 79.4104 31.7491 79.1096 31.378 78.8283C30.9991 78.5393 30.6163 78.2697 30.2178 78.0197L29.6162 77.6486C29.417 77.5393 29.3272 77.5197 29.167 77.5901C28.8584 77.7697 28.4756 78.1682 28.1553 78.4807C27.8272 78.8088 27.5342 79.1604 27.3467 79.5588C27.1475 79.9494 27.0772 80.3791 27.1358 80.8088C27.1162 81.2385 27.2452 81.6877 27.6045 82.0276C27.1358 81.8557 26.7959 81.387 26.6436 80.8792C26.5655 80.3479 26.6631 79.8011 26.9053 79.3401C27.1358 78.8713 27.4639 78.4807 27.8037 78.1292C27.9756 77.9495 28.1553 77.7893 28.335 77.6292C28.5147 77.4807 28.6748 77.2893 28.9561 77.1487C29.0967 77.0784 29.2764 77.0393 29.4444 77.0706C29.6162 77.1018 29.753 77.1721 29.8662 77.2307L30.4873 77.6096C30.8975 77.8714 31.2881 78.1487 31.6787 78.4378C32.0694 78.7386 32.4405 79.0159 32.8076 79.3792C33.1397 79.7815 33.3077 80.4807 32.8975 80.84Z" fill="black"/>
<path d="M31.9492 88.379C31.8281 87.8009 31.7382 87.2188 31.539 86.6993C31.4297 86.1602 31.1797 85.6798 30.789 85.3009C30.0195 84.5704 28.8202 84.1798 27.789 83.8907C27.2695 83.7696 26.8672 84.0313 26.4179 84.4298C25.9765 84.8008 25.5468 85.1797 25.207 85.6094C24.8672 86.0509 24.6367 86.5391 24.6289 87.0703C24.5195 87.5899 24.6172 88.1719 25.0078 88.6211C24.4688 88.3399 24.168 87.6797 24.1289 87.0508C24.1484 86.4024 24.4375 85.7891 24.8203 85.3125C25.1992 84.8243 25.6484 84.4219 26.1015 84.0508C26.3203 83.8712 26.5625 83.6602 26.871 83.5118C27.1796 83.3633 27.5625 83.3399 27.871 83.4024C28.5117 83.5313 29.0194 83.7618 29.5819 83.9805C30.1327 84.211 30.6835 84.5001 31.1405 84.9493C31.6015 85.3907 31.9023 85.9884 32.0312 86.5899C32.0898 87.211 32.039 87.8008 31.9492 88.379Z" fill="black"/>
<path d="M12.2497 80.3979C11.9099 80.0581 11.5779 79.7182 11.2302 79.4097C10.949 79.0503 10.6404 78.6987 10.3201 78.3589C10.1599 78.1987 9.99197 78.019 9.83962 77.8784C9.65993 77.7495 9.69118 77.7573 9.62087 77.8393C9.54274 77.9604 9.53102 78.1596 9.51149 78.4096L9.47242 79.101C9.43336 80.0229 9.48414 80.9408 9.88258 81.7299C10.0818 82.1206 10.3709 82.4917 10.6131 82.9213C10.7849 83.3901 10.9021 83.933 10.7224 84.3901C10.6912 83.9097 10.4607 83.5112 10.1834 83.1713C9.96462 82.7807 9.67165 82.4096 9.44509 81.9604C8.98415 81.0503 8.94509 80.0307 8.98415 79.0893L9.03493 78.3784C9.05446 78.1597 9.04665 77.8667 9.22634 77.5776C9.30447 77.4292 9.52712 77.2768 9.73806 77.2964C9.95681 77.3159 10.0974 77.437 10.199 77.5151C10.3904 77.687 10.5388 77.855 10.7107 78.0268C11.0388 78.3784 11.3513 78.7378 11.6521 79.1049C11.8592 79.519 12.0896 79.9487 12.2497 80.3979Z" fill="black"/>
<path d="M13.3906 74.621C12.9805 74.2811 12.5703 73.9725 12.1094 73.7304C11.711 73.4218 11.2696 73.1601 10.8203 72.9218C9.91018 72.4413 8.94144 72.0819 7.96094 71.7304L8.26172 71.3593C8.83203 72.2812 9.23047 73.3007 9.45312 74.3476C9.5625 74.8671 9.64453 75.3984 9.70312 75.9257C9.68359 76.4647 9.65234 76.996 9.59374 77.5273L9.20312 75.9882C9.14452 75.4687 9.07421 74.957 8.96484 74.457C8.7539 73.457 8.375 72.4882 7.83594 71.6172L8.13672 71.2461C9.11719 71.6055 10.1055 71.9766 11.0586 72.4649C11.5274 72.7149 11.9883 72.9961 12.418 73.3243C12.7891 73.7305 13.1406 74.1483 13.3906 74.621Z" fill="black"/>
<path d="M11.8086 69.469C11.418 69.3284 11.0469 69.1682 10.6797 69.0002C10.3086 68.8088 9.99999 68.5119 9.73046 68.1487C9.48046 67.7776 9.33984 67.3987 9.17968 67.0276C9.01952 66.6565 8.87109 66.2971 8.6914 65.9573L9.16015 65.8088C9.30859 66.84 9.3789 67.8479 9.60156 68.84C9.71094 69.3517 9.78125 69.8791 9.78125 70.4181C9.74219 70.9572 9.51954 71.4884 9.21095 71.9064C9.33986 71.3947 9.31251 70.8947 9.28126 70.4064C9.29298 69.9181 9.22266 69.426 9.1211 68.9376C8.89063 67.9181 8.82032 66.879 8.67188 65.879L9.14062 65.7306C9.53124 66.4493 9.76171 67.2618 10.1523 67.8712C10.332 68.172 10.6719 68.3595 10.9531 68.6407L11.8086 69.469Z" fill="black"/>
<path d="M11.9883 64.8979C11.6601 64.5972 11.5 64.0972 11.4492 63.6479C11.4101 63.4292 11.3789 63.2261 11.3711 63.0269C11.3398 62.8276 11.3008 62.6167 11.2422 62.4175C11.0234 61.5972 10.6328 60.8277 10.2305 60.0464L10.6914 59.8667C11.043 61.187 10.9609 62.5659 10.7695 63.8667L10.418 65.7964C10.2969 66.437 10.0273 67.0659 9.81641 67.6948C9.83594 67.0346 9.80469 66.3745 9.91796 65.726L10.2695 63.7963C10.4609 62.5268 10.5312 61.2182 10.1992 59.9955L10.6602 59.8158C11.0586 60.597 11.4609 61.3939 11.6993 62.2846C11.8008 62.7143 11.9375 63.2065 11.8282 63.644C11.7813 64.0776 11.8008 64.48 11.9883 64.8979Z" fill="black"/>
<path d="M32.6591 66.211C32.4794 65.75 32.2177 65.3594 31.8778 65.0508C31.6083 64.6914 31.2568 64.3906 30.8778 64.1406C30.4872 63.8906 30.0693 63.6914 29.6278 63.5117C29.1982 63.3515 28.6982 63.1211 28.327 63.0625C28.1356 63.043 28.038 63.082 27.9169 63.2344C27.7958 63.3828 27.6864 63.6055 27.5888 63.8125C27.3895 64.2226 27.2606 64.6719 27.1786 65.1211C27.1083 65.5703 27.0888 66.043 27.1395 66.5C27.1083 66.9687 27.1591 67.4414 27.2411 67.9297C26.9599 67.5195 26.7802 67.0508 26.6395 66.5586C26.5809 66.0586 26.6005 65.5469 26.6786 65.0469C26.7567 64.5469 26.9091 64.0586 27.1278 63.6055C27.2372 63.375 27.3466 63.1641 27.5184 62.9258C27.6786 62.6758 28.0888 62.5156 28.3778 62.5742C28.9559 62.6836 29.3388 62.8945 29.8075 63.0625C30.2567 63.2539 30.7177 63.461 31.1356 63.7344C31.5653 64.0039 31.9559 64.3555 32.2645 64.7539C32.5301 65.2109 32.6903 65.7188 32.6591 66.211Z" fill="black"/>
<path d="M36.9804 67.1209C36.9023 66.7108 36.789 66.3319 36.6718 65.9412C36.6328 65.5506 36.5312 65.1522 36.4609 64.7498C36.3125 63.9491 36.1797 63.0779 36.4414 62.2186L36.7695 62.5194C36.2304 62.7382 36.0312 63.4999 35.6797 64.16C35.5 64.4881 35.3086 64.8202 35.0586 65.1092C34.7695 65.3592 34.4688 65.5897 34.1367 65.7694C34.3359 65.4491 34.5352 65.1483 34.6875 64.8202C34.8789 64.5311 35.0859 64.2421 35.2461 63.9296C35.4062 63.6288 35.5351 63.2889 35.7148 62.9413C35.8945 62.6132 36.1562 62.2421 36.5859 62.0624L36.914 62.3632C36.6953 63.0819 36.793 63.8632 36.9453 64.6523L37.1641 65.8632C37.1601 66.2889 37.1211 66.7303 36.9804 67.1209Z" fill="black"/>
<path d="M39.1406 69.91C39.3203 69.7303 39.4102 69.5194 39.4609 69.3084C39.4805 69.199 39.4922 69.0897 39.4922 68.9881C39.5117 68.8865 39.543 68.7772 39.543 68.6678C39.5742 68.2381 39.5117 67.7381 39.5234 67.2459C39.5234 66.2771 39.6133 65.2967 39.8047 64.3357L40.2539 64.5271C39.9922 64.9255 39.6953 65.3084 39.3633 65.656C39.2734 65.7341 39.2031 65.8357 39.1016 65.906L38.7813 66.0974C38.5703 66.2185 38.3516 66.3279 38.1328 66.406L38.5625 65.8474L38.7617 65.5584C38.832 65.4685 38.9219 65.3982 38.9922 65.3201C39.3008 64.992 39.582 64.6404 39.832 64.2615L40.2813 64.4529C40.1016 65.3748 40.0117 66.324 40.0117 67.2615C40 67.7302 40.0625 68.1912 40.0313 68.7224C40.0117 68.8513 40.0117 68.9841 39.9727 69.113C39.9219 69.2419 39.8438 69.363 39.7617 69.4724C39.6016 69.6794 39.3789 69.8592 39.1406 69.91Z" fill="black"/>
<path d="M38.8906 65.84C38.7422 65.5587 38.6016 65.2697 38.4609 64.9806C38.3203 64.6915 38.1602 64.4103 38.1016 64.1017L37.543 62.2814L36.4219 58.6525L36.8906 58.6837C36.6289 59.2931 36.9414 60.0743 36.8008 60.9337C36.75 61.3556 36.4609 61.8556 36.0625 61.9923C35.7031 62.172 35.3515 62.3439 34.9922 62.4923L35.832 61.6837C36.082 61.4025 36.2617 61.2033 36.3125 60.8439C36.3711 60.5041 36.332 60.1447 36.3008 59.7423C36.2695 59.3517 36.25 58.9142 36.4297 58.4806L36.8984 58.5118L38.0195 62.1329L38.5781 63.9415C38.6992 64.2306 38.7266 64.5626 38.7773 64.8712C38.8086 65.1994 38.8594 65.5196 38.8906 65.84Z" fill="black"/>
<path d="M28.1419 62.871C28.1029 62.6093 28.0326 62.3593 27.9232 62.1405C27.8138 61.9101 27.6732 61.7187 27.5951 61.4921C27.3763 61.0507 27.0755 60.6523 26.7552 60.2616C26.1146 59.4804 25.3333 58.6522 25.1263 57.5116L25.6146 57.5233L25.224 59.3045C25.1537 59.6053 25.1146 59.9061 24.9623 60.1834C24.8412 60.4647 24.724 60.7537 24.5834 61.035C24.5716 60.7264 24.5951 60.4139 24.5951 60.1053C24.5755 59.785 24.6654 59.4959 24.7357 59.2069L25.1263 57.4257L25.6146 57.4374C25.7748 58.3788 26.4857 59.1562 27.1458 59.9491C27.4739 60.3592 27.806 60.7889 28.0442 61.2772C28.1927 61.5076 28.2435 61.7967 28.2552 62.078C28.263 62.3397 28.2318 62.6093 28.1419 62.871Z" fill="black"/>
<path d="M34.1598 64.57C34.1285 64.281 34.0582 63.9997 33.9606 63.7497C33.859 63.488 33.691 63.281 33.6012 63.031C33.3512 62.5622 32.9606 62.2107 32.4723 61.9412C31.9918 61.6717 31.4137 61.3631 31.0426 60.8201C30.6715 60.3084 30.484 59.6717 30.5309 59.031L31.0191 59.1091C30.8473 59.8083 30.7184 60.5193 30.6285 61.238C30.5699 61.5974 30.5777 61.9685 30.4488 62.3161C30.3473 62.6755 30.2574 63.0349 30.148 63.3864C30.109 63.0153 30.0777 62.6481 30.0582 62.277C30.0074 61.9059 30.0973 61.5387 30.1285 61.1754C30.2301 60.4449 30.3473 59.7145 30.527 58.984L31.0152 59.0621C30.9762 59.5739 31.1363 60.1012 31.4371 60.523C31.7262 60.9527 32.1988 61.2027 32.7066 61.5035C33.2261 61.7848 33.7378 62.234 34.0152 62.7847C34.1949 63.0464 34.234 63.3745 34.2457 63.6753C34.2887 63.9878 34.2613 64.2888 34.1598 64.57Z" fill="black"/>
<path d="M34.0195 91.551C34.3906 91.0314 34.8711 90.551 35.4492 90.2893C36.0078 89.9885 36.5781 89.7307 37.1406 89.469C38.25 88.9377 39.3711 88.3792 40.1094 87.4573L40.3087 87.8674C40.129 87.8791 39.9493 87.887 39.7774 87.9065C39.5977 87.9065 39.4258 87.9768 39.2462 87.9651C38.8751 87.9534 38.5157 87.9846 38.1368 88.0159C38.4571 87.8166 38.8086 87.6643 39.1679 87.5159C39.3476 87.4377 39.5469 87.4573 39.7265 87.4143C39.918 87.3948 40.1054 87.3831 40.2968 87.3752L40.4961 87.7854C39.6562 88.8245 38.4649 89.4065 37.3477 89.9338C36.7774 90.2033 36.2188 90.4533 35.6758 90.7424C35.1719 91.0705 34.5898 91.2385 34.0195 91.551Z" fill="black"/>
<path d="M34.9688 89.629C35.8477 89.7774 36.6093 89.3087 37.1796 88.7696C37.7695 88.2305 38.1406 87.4688 38.4413 86.6798L40.1796 81.8282L40.5703 82.1094C39.5391 82.8907 38.5195 83.6992 37.7305 84.6875C37.3203 85.168 37.0508 85.7383 36.7422 86.2891C36.4414 86.8399 36.2305 87.461 36.1523 88.1094C36.0625 87.461 36.1523 86.7813 36.3438 86.1289C36.5352 85.4688 36.9453 84.918 37.3438 84.3789C38.1836 83.3281 39.2344 82.5 40.2735 81.707L40.6641 81.9883L38.9258 86.8477C38.6172 87.6563 38.2266 88.4883 37.5352 89.1289C36.8203 89.75 35.7696 90 34.9688 89.629Z" fill="black"/>
<path d="M37.9294 84.1291C37.7497 83.6095 37.5388 83.1174 37.2575 82.6799C37.0583 82.1994 36.7888 81.758 36.4567 81.3518C36.1286 80.9611 35.7575 80.551 35.3473 80.3518C34.9372 80.133 34.5192 80.2932 34.0856 80.59L32.8551 81.59C32.4332 81.9103 32.0543 82.2893 31.8356 82.7111C31.6052 83.133 31.6247 83.6018 31.8747 84.0119C32.0466 84.4729 32.445 84.8518 32.8239 85.2502C32.3356 85.0198 31.8356 84.7502 31.445 84.2698C31.1052 83.7698 31.0739 83.0081 31.3864 82.4807C31.6755 81.9494 32.0856 81.551 32.5153 81.2112L33.7965 80.1721C34.027 80.0119 34.2848 79.8518 34.5973 79.7736C34.9176 79.6955 35.277 79.7541 35.5465 79.883C36.1051 80.1642 36.4762 80.5939 36.8356 81.0236C37.1872 81.465 37.4762 81.9533 37.7067 82.465C37.8708 83.0314 37.9489 83.5783 37.9294 84.1291Z" fill="black"/>
<path d="M39.1601 82.871C38.9609 82.4296 38.9805 81.9022 39.0898 81.4218C39.2695 80.9609 39.5312 80.5507 39.7891 80.1601C40.0508 79.7695 40.3086 79.3984 40.5078 79.0117C40.6094 78.8203 40.6875 78.6211 40.7383 78.4101C40.8164 78.2187 40.75 78.0312 40.7578 78.082C40.7891 78.0508 40.6094 78.1523 40.4297 78.332C40.2383 78.5039 40.0312 78.6406 39.8203 78.7617C39.3906 79 38.9492 79.1601 38.5195 79.332C38.0976 79.5039 37.6992 79.6914 37.3711 79.9531C36.9805 80.1523 36.6523 80.4414 36.4492 80.8828C36.4492 80.4023 36.7187 79.9336 37.0586 79.5625C37.4492 79.2539 37.8984 79.043 38.3398 78.8633C38.7695 78.6836 39.1992 78.5352 39.5781 78.3242C39.7695 78.2227 39.9492 78.0937 40.0976 77.9648C40.1679 77.9062 40.2695 77.8047 40.3867 77.7266C40.4961 77.6484 40.7148 77.5351 40.9453 77.6367C41.1757 77.7266 41.2656 77.9766 41.2656 78.125C41.2773 78.2852 41.2461 78.4453 41.2148 78.5547C41.1445 78.793 41.0546 79.0234 40.9453 79.2461C40.7265 79.6875 40.457 80.0664 40.1953 80.4453C39.9336 80.8242 39.707 81.1953 39.5468 81.6055C39.3281 81.9688 39.1797 82.3906 39.1601 82.871Z" fill="black"/>
<path d="M14.2693 87.621C13.699 87.4609 13.1912 87.1015 12.7576 86.6913C12.5389 86.4921 12.3358 86.2616 12.1483 86.0312C11.9686 85.8007 11.828 85.5429 11.6483 85.332C10.9881 84.453 9.86707 84.1015 8.75767 83.8008L8.99594 83.3789C9.42563 83.8008 9.87486 84.2304 10.2342 84.75C10.6053 85.2695 10.8241 85.8711 11.0155 86.4414C11.2069 87.0117 11.3866 87.582 11.6561 88.0703C11.9256 88.5703 12.2967 89.0117 12.7772 89.2305L12.7264 89.6992C11.8671 89.8789 10.9452 89.8008 10.1366 89.4609L10.4062 89.0508C10.6874 89.3203 11.0077 89.5625 11.3359 89.7695C11.664 89.9883 12.0273 90.1289 12.375 90.3281C13.0742 90.6992 13.8555 90.9297 14.6641 91.0391C13.8437 91.1172 13.0039 91 12.2032 90.7578C11.793 90.6484 11.4336 90.418 11.0743 90.1992C10.7149 89.9688 10.3828 89.7109 10.0743 89.418L10.3438 89.0078C11.0625 89.3086 11.875 89.3867 12.6446 89.2266L12.5938 89.6953C11.9727 89.4063 11.543 88.8672 11.2422 88.3242C10.9336 87.7656 10.7539 87.1758 10.5625 86.6133C10.3711 86.0547 10.1641 85.5039 9.84376 85.043C9.52345 84.5743 9.09376 84.1641 8.66406 83.7539L8.90234 83.332C9.46093 83.4922 10.0429 83.6523 10.5937 83.9102C11.1445 84.1602 11.6835 84.5391 12.0546 85.0391C12.4531 85.5195 12.6836 86.0273 13.0234 86.4883C13.3593 86.9218 13.7615 87.3281 14.2693 87.621Z" fill="black"/>
<path d="M16.4492 92.7379C16.1875 92.8473 15.9609 92.9567 15.7383 93.0973C15.5078 93.1754 15.2773 93.2692 15.0664 93.3864C14.6367 93.6168 14.2578 93.945 13.9766 94.3473L13.7149 93.9567C14.2852 93.8083 14.8633 93.7184 15.4532 93.6676C15.7422 93.6364 16.043 93.6364 16.3321 93.6286C16.6211 93.7067 16.9102 93.7887 17.1914 93.9176L16.3321 94.1364C16.0508 94.1247 15.7735 94.1481 15.4922 94.1676C14.9336 94.2184 14.3828 94.3083 13.832 94.4489L13.5625 94.0583C13.8906 93.5973 14.3242 93.2184 14.8242 92.9567C15.0742 92.8278 15.3242 92.7067 15.6054 92.6481C15.8984 92.6403 16.1797 92.6598 16.4492 92.7379Z" fill="black"/>
<path d="M26.2307 90.2891C26.4924 90.0898 26.5002 89.7383 26.4026 89.5C26.2932 89.2617 26.051 89.1094 25.801 89.0195C25.2815 88.8086 24.6526 88.7891 24.0198 88.5703C22.7698 88.1601 21.7503 87.3789 20.6214 86.9687C20.0706 86.7695 19.4417 86.6289 18.93 86.7578C18.43 86.8671 18.1995 87.4374 18.0394 88.0195C17.8792 88.5898 17.8206 89.1992 17.9378 89.7578C17.9769 90.3359 18.2269 90.918 18.6995 91.3476C18.1097 91.0858 17.68 90.5077 17.4495 89.8671C17.3011 89.1952 17.3792 88.5155 17.5511 87.8866C17.6409 87.578 17.7425 87.2655 17.9222 86.9569C18.0941 86.6483 18.4339 86.367 18.7933 86.285C19.512 86.1248 20.1644 86.3045 20.7816 86.5155C22.0121 86.9647 23.0199 87.746 24.1722 88.1171C24.723 88.3163 25.3831 88.3358 26.0238 88.5858C26.3246 88.7772 26.6019 89.0741 26.6644 89.4452C26.7113 89.7889 26.5393 90.1797 26.2307 90.2891Z" fill="black"/>
<path d="M19.7612 62.48C19.3706 62.0503 18.9917 61.6284 18.5698 61.2417C18.2183 60.8002 17.8316 60.4018 17.4214 60.0229C17.0113 59.6439 16.5816 59.2924 16.1011 59.1635C15.6207 59.0229 15.2027 59.2416 14.9097 59.6947C14.3394 60.644 13.8199 61.6752 13.2691 62.6556C12.9996 63.1556 12.7106 63.6439 12.5191 64.1673C12.2496 64.6478 12.0582 65.1673 12.0973 65.7571C11.8473 65.2181 11.9176 64.5657 12.0465 63.9954C12.2457 63.4368 12.5465 62.9446 12.816 62.4368C13.3746 61.4251 13.8746 60.4056 14.4957 59.4056C14.6676 59.1556 14.8942 58.8939 15.2145 58.7455C15.5348 58.597 15.9059 58.5853 16.2262 58.6752C16.8551 58.8548 17.3356 59.2533 17.7574 59.6439C18.1871 60.0345 18.5855 60.4642 18.9566 60.9134C19.2691 61.4212 19.5581 61.9292 19.7612 62.48Z" fill="black"/>
<path d="M24.5692 65.5589C24.4598 65.5589 24.3309 65.5199 24.1707 65.3792C21.9519 63.3987 20.2605 60.8675 19.2801 58.0589C19.1083 57.5589 18.9716 57.0198 19.1317 56.5081L19.3817 56.3363C20.6825 56.4144 22.0223 56.1371 23.1512 55.5472C23.491 55.3753 23.8114 55.2074 24.1707 55.2464C24.741 55.3167 25.0809 55.848 25.2098 56.3167C25.2606 56.4886 25.2879 56.6683 25.3192 56.848C25.3582 57.098 25.409 57.3285 25.4989 57.5394L25.0379 57.7386C24.9168 57.4691 24.8661 57.1996 24.827 56.93C24.7957 56.7699 24.7684 56.6097 24.7254 56.4496C24.6668 56.2308 24.5262 55.9613 24.3348 55.8285C24.0262 56.1683 23.8856 56.6097 23.8153 56.9183C23.7137 57.4065 23.7371 57.9183 23.7567 58.3675C23.8661 60.4066 24.245 62.5472 24.9169 64.8987C25.0184 65.2385 24.8973 65.4104 24.7763 65.4885C24.7489 65.5198 24.6707 65.5589 24.5692 65.5589ZM19.5575 56.8401C19.5184 57.1917 19.6278 57.5589 19.7489 57.8909C20.6903 60.5901 22.2997 63.0198 24.4208 64.93C23.7606 62.5784 23.3817 60.4417 23.2724 58.3909C23.2411 57.9222 23.2333 57.3597 23.331 56.8206C23.4091 56.4417 23.5419 56.1019 23.7216 55.8089C23.62 55.848 23.5302 55.8988 23.4325 55.9496C22.2177 56.5902 20.8895 56.8792 19.5575 56.8401Z" fill="black"/>
<path d="M16.1016 54.7889L15.8516 54.4608C16.2109 53.3592 16.7031 52.6522 17.3633 52.242C18.1015 51.7811 19.0352 51.7537 19.7735 51.7225C20.6328 51.6912 21.6446 51.6522 22.6133 51.8631H22.6523C23.0742 51.953 23.4726 52.0936 23.8632 52.2928C24.4413 52.5936 25.164 53.203 25.9921 54.0819L25.6327 54.4217C24.8437 53.5819 24.1639 53.0115 23.6327 52.7303C23.2929 52.5507 22.9335 52.4296 22.5624 52.3514C21.4218 52.2811 20.2929 52.871 19.4335 53.3905L19.2734 53.4921C18.2812 54.0898 17.2696 54.699 16.1016 54.7889ZM20.6719 52.1991C20.3711 52.1991 20.0703 52.2109 19.7929 52.2187C19.0742 52.2499 18.2618 52.2695 17.6328 52.6601C17.1445 52.9609 16.7734 53.4609 16.4608 54.2304C17.3593 54.0585 18.1914 53.5507 19 53.0585L19.1601 52.9569C19.6015 52.6991 20.1211 52.4101 20.6719 52.1991Z" fill="black"/>
<path d="M25.5507 54.879C25.539 53.3985 25.1093 51.8009 24.289 50.129C23.5507 48.6407 22.5585 47.2384 21.6093 45.879C20.9374 44.9298 20.2499 43.9376 19.3984 43.1407C18.4687 42.2501 17.4492 41.6915 16.4375 41.5118C15.9063 41.4103 15.3672 41.422 14.7969 41.422C14.3672 41.422 13.9258 41.4337 13.4961 41.3907C12.9063 41.3321 12.375 41.1798 11.9375 40.9415C12.7891 42.4415 13.9766 43.7501 15.1367 45.0196L15.5859 45.5079C17.1562 47.2462 18.8867 49.3165 19.4765 51.836L18.9883 51.9453C18.4297 49.5469 16.75 47.5234 15.2188 45.8359L14.7695 45.3477C13.25 43.6758 11.6914 41.9571 10.8398 39.7891L11.3008 39.5977C11.6094 40.2969 12.4492 40.7774 13.5391 40.8789C13.9492 40.9179 14.3789 40.9179 14.7891 40.9101C15.3594 40.9101 15.9375 40.8984 16.5196 41C17.6212 41.1992 18.7384 41.8085 19.7384 42.7617C20.6173 43.6015 21.3282 44.6015 22.0079 45.5703C22.9766 46.9414 23.9688 48.3594 24.7267 49.8906C25.5861 51.6289 26.0353 53.3008 26.047 54.8594L25.5507 54.879Z" fill="black"/>
<path d="M27.0909 49.27L26.6104 49.1411C27.1417 47.1099 27.3018 45.1997 27.0909 43.4614C26.8409 41.4497 26.0909 39.6606 24.9307 38.3012C24.7588 38.102 24.5713 37.9028 24.3916 37.6997C24.0518 37.3403 23.7002 36.9614 23.4112 36.5278C22.1807 38.1372 21.63 40.309 21.9307 42.3989C21.9619 42.5786 21.9893 42.7582 22.0205 42.9496C22.1807 43.8286 22.3408 44.7504 21.9307 45.5785L21.4814 45.3598C21.8213 44.6801 21.6728 43.8403 21.5322 43.0395C21.501 42.8481 21.4619 42.6606 21.4424 42.4809C21.1025 40.1293 21.7705 37.6918 23.251 35.9497L23.6611 35.9888C23.9424 36.5005 24.3408 36.9185 24.7627 37.3677C24.9541 37.5669 25.1416 37.7661 25.3213 37.977C26.5518 39.4184 27.3408 41.2973 27.6025 43.4067C27.8017 45.2114 27.6417 47.1801 27.0909 49.27Z" fill="black"/>
<path d="M35.7187 61.789C33.957 61.0781 32.5078 59.8593 31.6484 58.3593C31.5391 58.1679 31.4375 57.9804 31.3399 57.7812C31 57.1327 30.6797 56.5117 30.1211 56.1601C29.4609 55.7382 28.6327 55.8202 27.9921 56.0585C27.9726 56.0702 27.9531 56.0781 27.9218 56.0976V56.0859C27.8437 56.1171 27.7734 56.1445 27.7031 56.1874C26.9023 56.578 26.2422 57.2382 25.6133 57.8788L25.2539 57.5273C25.8828 56.8866 26.5937 56.1679 27.4727 55.7382C27.5743 55.6874 27.6836 55.6483 27.7813 55.6093C29.1094 54.9296 30.543 55.16 31.9219 55.3788L32.4414 55.4569C32.6211 55.4882 32.8711 55.5155 33.0625 55.6874C33.332 55.9061 33.3711 56.2577 33.4024 56.5389C33.6328 58.4491 34.9415 60.0975 36.004 61.4295L35.7187 61.789ZM30.2382 55.6406C30.289 55.6718 30.3398 55.6914 30.3789 55.7187C31.0586 56.1484 31.418 56.8476 31.7773 57.539C31.8788 57.7304 31.9765 57.9179 32.078 58.0976C32.7265 59.2265 33.7264 60.1757 34.9491 60.8671C34.0273 59.6562 33.1093 58.2265 32.91 56.6054C32.8788 56.3554 32.8514 56.1367 32.7382 56.0351C32.66 55.9648 32.4999 55.9453 32.3671 55.914L31.8475 55.8359C31.3007 55.7617 30.7695 55.6797 30.2382 55.6406Z" fill="black"/>
<path d="M25.0391 56.109L24.5781 55.8981C25.0273 54.9098 26.0898 54.1598 27.3281 53.9372C28.2891 53.7653 29.3476 53.8786 30.6679 54.277C31.1289 54.4177 31.5898 54.5778 32.039 54.7458C32.5976 54.945 33.1796 55.1559 33.7578 55.3161C34.9687 55.6442 35.9766 55.695 36.8594 55.4567L36.9883 55.9372C36.0274 56.1989 34.9297 56.1481 33.6289 55.7966C33.0274 55.6364 32.4375 55.4255 31.8672 55.2184C31.418 55.0583 30.9766 54.8981 30.5156 54.7575C29.2851 54.3786 28.2968 54.277 27.414 54.4294C26.3398 54.6208 25.4219 55.2692 25.0391 56.109Z" fill="black"/>
<path d="M42.5897 58.6211C41.0506 57.3203 39.1678 56.6523 37.1913 55.9414C35.7616 55.4296 34.2929 54.9023 32.9608 54.1211C32.5897 53.9023 32.2304 53.6601 31.871 53.4218C31.4492 53.1406 31.0117 52.8437 30.5624 52.6015C29.6132 52.0703 28.7733 51.832 27.9843 51.8828C27.0546 51.9336 26.2148 52.4531 25.8945 53.1719L25.4258 52.9922C25.6367 52.3633 26.0977 51.7031 26.6641 51.2031C27.2149 50.7226 27.8633 50.375 28.4844 50.0312C29.4063 49.5312 30.4453 48.9726 31.5742 48.8593C32.5742 48.7577 33.6758 48.9999 34.9336 49.5898C39.0547 51.5312 41.582 55.4179 42.9727 58.3281L42.5897 58.6211ZM28.1597 51.3711C28.98 51.3711 29.8394 51.6328 30.8003 52.1601C31.2691 52.4218 31.7105 52.7187 32.1519 53C32.5035 53.2304 32.8629 53.4687 33.2222 53.6914C34.5034 54.4531 35.9605 54.9726 37.3628 55.4726C38.9722 56.0507 40.6245 56.6445 42.0542 57.5937C40.6245 54.9023 38.2847 51.7148 34.7261 50.0351C33.5542 49.4843 32.5464 49.2538 31.6363 49.3437C30.5972 49.4452 29.6051 49.9843 28.7379 50.4531C28.1364 50.7734 27.527 51.1132 27.0074 51.5547C27.3082 51.4453 27.6285 51.375 27.9684 51.3554C28.0192 51.3711 28.0894 51.3711 28.1597 51.3711Z" fill="black"/>
<path d="M17.8008 52.262C15.6289 49.3518 12.9492 46.0706 9.55075 43.762C7.66015 42.4808 5.55076 41.5003 3.72266 40.6839L3.82421 40.2034C7.06252 40.1839 9.83592 40.7034 12.4648 41.8518L12.2656 42.3128C10.0351 41.3323 7.70699 40.8245 5.02729 40.7112C6.59759 41.4299 8.289 42.2814 9.8359 43.34C13.2968 45.6916 16.0156 49.012 18.207 51.9612L17.8008 52.262Z" fill="black"/>
<path d="M16.5195 53.102C14.8711 51.0629 13.0078 48.7622 10.5781 47.3911C9.91796 47.02 9.20702 46.7114 8.51952 46.4107C8.12108 46.2388 7.71874 46.0591 7.32812 45.8794C5.95702 45.231 5.02732 44.5786 4.38672 43.8286L4.58594 43.4185L5.75784 43.4771C6.52737 43.5161 7.25784 43.5474 7.99614 43.5786C8.72661 43.6099 9.46494 43.6372 10.2344 43.6802L10.2032 44.1802C9.43366 44.1411 8.70319 44.1099 7.96489 44.0786C7.23442 44.0474 6.49609 44.02 5.72659 43.9771L5.19534 43.9458C5.76565 44.4653 6.52344 44.9341 7.53514 45.4263C7.92576 45.606 8.31639 45.7779 8.70704 45.9458C9.40626 46.2466 10.1289 46.5669 10.8086 46.9458C13.3203 48.3677 15.2188 50.7075 16.8867 52.7739L16.5195 53.102Z" fill="black"/>
<path d="M16.7301 53.172C15.4215 52.8126 14.2418 52.1017 13.109 51.4103C12.3278 50.9415 11.5309 50.4493 10.6871 50.09C9.28873 49.4806 7.75743 49.1915 6.26523 48.9181C5.87461 48.8478 5.47617 48.7696 5.08553 48.8165C4.78475 48.8556 4.40584 49.0157 4.24569 49.336L3.77694 49.2775C3.6285 48.629 4.11679 47.9767 4.66757 47.7189C5.19882 47.4689 5.77696 47.4806 6.37846 47.5196C8.21826 47.6212 10.0699 47.8477 11.859 48.0704C12.1285 48.1017 12.4801 48.2618 12.7574 48.379L12.8863 48.4376L12.6871 48.8985L12.5582 48.8399C12.3199 48.7384 11.9996 48.5899 11.7965 48.5704C10.0153 48.3517 8.18707 48.129 6.35507 48.0314C5.82382 48.0001 5.31596 47.9923 4.88626 48.1915C4.73782 48.2618 4.5972 48.3712 4.48782 48.5001C4.64798 48.422 4.82766 48.3712 5.02688 48.3517C5.48782 48.2931 5.95658 48.3712 6.36669 48.4532C7.87839 48.7345 9.44479 49.0313 10.8979 49.6641C11.769 50.043 12.5776 50.5352 13.3784 51.0157C14.5386 51.7149 15.6284 52.3751 16.8667 52.7149L16.7301 53.172Z" fill="black"/>
<path d="M16.6992 53.23C14.6992 53.0386 12.75 52.5581 10.8906 51.8003L10.5898 51.6792C10.0312 51.4487 9.51169 51.23 8.94139 51.1401C8.23045 51.0308 7.57029 51.1987 7.17969 51.5894L6.75781 51.398C6.77734 51.0073 7.01953 50.5972 7.3789 50.3472C7.69921 50.1284 8.07812 50.0386 8.4297 49.9565C9.19923 49.7964 10 49.687 10.8008 49.6284L10.8399 50.1284C10.0586 50.187 9.28907 50.2886 8.53127 50.4487C8.25002 50.5073 7.96095 50.5698 7.73048 50.7183C8.1211 50.6089 8.5586 50.5776 9.03128 50.6479C9.65237 50.7378 10.2305 50.9761 10.793 51.2183L11.082 51.3393C12.8906 52.0776 14.8008 52.5502 16.7539 52.7377L16.6992 53.23Z" fill="black"/>
<path d="M12.0779 58.2301C11.3865 57.6988 11.2966 56.8199 11.4568 56.1715C11.617 55.48 12.0271 54.8824 12.3865 54.3512L13.6248 52.5114L14.035 52.7926L12.7967 54.6324C12.4451 55.1519 12.0857 55.6832 11.9373 56.2926C11.8865 56.5035 11.867 56.7535 11.8982 56.9918C11.9881 56.5309 12.2185 56.1012 12.4763 55.7809C12.9373 55.2106 13.5466 54.8122 14.1365 54.4215L14.2772 54.3317C15.0076 53.8512 15.7381 53.3317 16.4374 52.7809L16.7459 53.1793C16.035 53.7301 15.2967 54.2574 14.5545 54.7496L14.4139 54.8395C13.8553 55.2106 13.2733 55.5895 12.8631 56.1012C12.492 56.5621 12.1912 57.2926 12.453 57.9528L12.0779 58.2301Z" fill="black"/>
<path d="M24.4883 55.871C23.918 55.871 23.3281 55.6093 22.6992 55.0625C22.5586 54.9414 22.4179 54.8125 22.289 54.6835C21.9687 54.3945 21.6679 54.1132 21.3203 53.9023C20.5 53.4218 19.4414 53.4023 18.6797 53.832L18.4297 53.3906C19.3398 52.8789 20.6016 52.9101 21.5703 53.4687C21.9687 53.6992 22.3008 54.0078 22.6289 54.3085C22.7578 54.4296 22.8906 54.5585 23.0273 54.6679C23.5664 55.1289 24.039 55.3593 24.4882 55.3593H24.4999L24.5117 55.8593C24.4999 55.8711 24.5 55.871 24.4883 55.871Z" fill="black"/>
<path d="M12.6094 59.969L12.1875 59.719C12.5273 58.6995 12.8789 57.6487 13.4258 56.6878C13.9375 55.7894 14.9766 54.848 16.0664 54.2972L16.2969 54.7465C15.2852 55.2582 14.336 56.1176 13.8672 56.9379C13.5664 57.4691 13.3281 58.0395 13.1054 58.6098C13.4648 58.1488 13.7969 57.6684 14.0937 57.1801L14.1523 57.0785C14.332 56.7894 14.5117 56.4887 14.7617 56.2387C15.1133 55.8988 15.543 55.7191 15.9414 55.7582C16.4531 55.809 16.8125 56.1566 17.1406 56.4769C17.2422 56.5668 17.332 56.6684 17.4297 56.7465C17.9414 57.1879 18.6485 57.4066 19.3203 57.348L19.3593 57.848C18.539 57.9183 17.7187 57.6566 17.0976 57.1293C16.9882 57.0394 16.8867 56.9379 16.789 56.8402C16.5 56.559 16.2304 56.3012 15.8906 56.2621C15.6289 56.2426 15.3515 56.3637 15.1093 56.5902C14.8984 56.8012 14.7383 57.059 14.5703 57.3285L14.5117 57.4301C13.9687 58.3519 13.3281 59.1916 12.6094 59.969Z" fill="black"/>
<path d="M20.6094 56.7891C20.1094 56.7891 19.5586 56.6094 19.1797 56.3008C18.9414 56.1094 18.7187 55.8906 18.5195 55.6797C18.3984 55.5508 18.2695 55.418 18.1406 55.3008C17.8593 55.0391 17.039 54.7891 16.5625 54.7109L16.6406 54.2227C17.1406 54.3008 18.082 54.5742 18.4804 54.9414C18.621 55.0703 18.75 55.2031 18.8789 55.3398C19.0781 55.5508 19.2773 55.75 19.4882 55.918C19.8086 56.1797 20.2968 56.3281 20.7187 56.2969L20.7578 56.7969C20.7109 56.7891 20.6602 56.7891 20.6094 56.7891Z" fill="black"/>
<path d="M11.4297 61.801L11.0781 61.4417L13.5078 59.0315C13.9766 58.5705 14.5586 57.9924 15.2969 57.762C15.918 57.5706 16.5664 57.6331 17.1953 57.6838C17.9453 57.7542 18.6445 57.8127 19.207 57.4534L19.4766 57.8753C18.7656 58.3245 17.9454 58.2542 17.1485 58.1838C16.5391 58.1252 15.9688 58.0745 15.4493 58.2346C14.8282 58.426 14.3204 58.9338 13.8712 59.383L11.4297 61.801Z" fill="black"/>
<path d="M15.1016 41.32L8.87111 34.5192C7.24221 32.738 5.56251 30.8981 3.76171 29.2301C3.04296 28.5583 2.26171 27.902 1.32031 27.7613L1.35156 27.2613C5.27346 27.1403 8.40236 28.6324 10.3828 31.5894L9.96089 31.8707C8.32029 29.4098 5.85149 28.0191 2.74999 27.7926C3.24999 28.1012 3.6914 28.4918 4.10159 28.8707C5.91019 30.5621 7.61329 32.4019 9.24219 34.191L15.4727 40.9918L15.1016 41.32Z" fill="black"/>
<path d="M16.9229 41.6089C16.2237 41.0504 15.4815 40.2105 14.8213 39.4605C14.6416 39.2496 14.4698 39.0621 14.3018 38.8824C13.1612 37.6207 11.9737 36.2613 11.083 34.691C10.1025 32.9605 9.6338 31.1793 9.7314 29.5504L10.2197 29.4996C10.5712 30.7887 11.3994 32.0387 12.6689 33.2105C13.5908 34.0621 14.6494 34.7808 15.6689 35.4917L16.3603 35.9605C18.3408 37.3394 20.4697 39.4097 21.79 41.2417L21.3798 41.5307C20.0907 39.7495 18.0087 37.7221 16.0712 36.3705L15.3798 35.9018C14.3407 35.1909 13.2704 34.4526 12.3212 33.5815C11.4306 32.7612 10.7509 31.9096 10.2821 31.0229C10.4423 32.144 10.8602 33.3041 11.5009 34.4448C12.372 35.9643 13.5321 37.3042 14.6611 38.5464C14.833 38.7261 15.001 38.9253 15.1807 39.1362C15.8213 39.8667 16.5517 40.687 17.2197 41.2143L16.9229 41.6089Z" fill="black"/>
<path d="M21.2617 41.2109C19.2031 37.1797 17.0703 33.0195 13.7422 29.8399C12.9609 29.1017 12.1016 28.3985 11.2813 27.7305C10.6211 27.1915 9.94148 26.6407 9.29298 26.0586C8.3711 25.2305 7.62108 24.4297 7.04298 23.6289C7.83204 25.75 8.87108 27.707 10.1719 29.5781L9.76172 29.8672C7.94142 27.2578 6.63282 24.457 5.76172 21.3086L6.24219 21.1602C6.8125 22.6914 7.89059 24.1407 9.63279 25.6993C10.2734 26.2696 10.9414 26.8204 11.6016 27.3477C12.4297 28.0273 13.3008 28.7266 14.0899 29.4883C17.4805 32.7188 19.629 36.9297 21.711 40.9883L21.2617 41.2109Z" fill="black"/>
<path d="M18.1992 31.2891C15.9375 27.3477 12.6875 23.8085 9.55084 20.379C7.80084 18.4688 6.01174 16.5196 4.39064 14.4884C4.53908 14.7267 4.69142 14.9572 4.83986 15.1994C5.19924 15.758 5.55861 16.3283 5.89066 16.8986C7.40236 19.4767 8.48046 22.2775 9.08206 25.2072L8.59378 25.3087C8.00394 22.4298 6.94538 19.6876 5.45318 17.1485C5.12506 16.5782 4.76177 16.0196 4.41408 15.4571C3.6133 14.2071 2.86328 13.0274 2.36328 11.7657L2.80469 11.5353C4.85549 14.5041 7.42579 17.3165 9.91409 20.0236C13.0743 23.4728 16.3438 27.0353 18.625 31.0236L18.1992 31.2891Z" fill="black"/>
<path d="M19.4414 37.73C17.293 31.4488 17.9219 24.218 21.1133 18.402L21.2618 18.1324C21.6602 17.4215 22.0704 16.6832 22.1524 15.8941C22.2813 14.6246 21.543 13.4058 20.9727 12.5855C20.3438 11.6949 19.6446 10.8746 18.8633 10.1167L14.3633 8.67533L14.2539 8.27688C14.7031 7.75735 15.5039 7.54641 16.293 7.73782C16.9727 7.9097 17.5547 8.31595 18.0625 8.73783C19.3242 9.76903 20.4414 10.9683 21.3828 12.2964C22.0039 13.1753 22.8047 14.5073 22.6523 15.9448C22.5625 16.8355 22.1211 17.6167 21.7031 18.3745L21.5546 18.6362C18.4257 24.3354 17.8163 31.4172 19.914 37.5662L19.4414 37.73ZM14.9492 8.35095L17.9492 9.3119C17.8789 9.2533 17.8086 9.1908 17.7383 9.1322C17.2695 8.74158 16.75 8.37048 16.1602 8.22204C15.7891 8.12829 15.3203 8.14783 14.9492 8.35095Z" fill="black"/>
<path d="M25.5781 29.371C24.8086 27.3124 24.539 25.1015 24.2695 22.9608C24.2305 22.6014 24.1797 22.242 24.1289 21.8827C23.8281 19.5936 23.3906 16.9608 22.0586 14.7421L22.4883 14.4803C23.8672 16.7811 24.3164 19.4686 24.6172 21.8084C24.668 22.1678 24.707 22.5272 24.7578 22.8865C25.0195 24.9959 25.2969 27.1756 26.0469 29.1873L25.5781 29.371Z" fill="black"/>
<path d="M19.3198 24.48L18.8198 24.4605C18.8901 22.1714 18.4487 19.8121 18.019 17.5308C17.5308 14.9097 17.0073 12.191 17.269 9.54248L17.769 9.59326C17.519 12.1714 18.0308 14.855 18.519 17.4449C18.9409 19.7496 19.3901 22.1401 19.3198 24.48Z" fill="black"/>
<path d="M27.6024 43.32L27.1024 43.3005L27.2821 38.57C27.3524 36.7419 27.4227 34.8395 27.2821 32.9802C27.2118 32.1013 27.0829 31.1794 26.6024 30.449C26.0711 29.6482 25.204 29.1795 24.1727 28.7693C24.6414 29.8904 24.4032 31.2302 24.1532 32.199C23.6844 34.0779 23.6024 35.5076 23.9344 36.4373L23.4657 36.5975C23.1063 35.5663 23.1766 34.0467 23.6766 32.0663C23.9461 30.996 24.2079 29.4569 23.4071 28.4257L23.6961 28.035C24.7664 28.4335 26.2352 28.9843 27.0164 30.1639C27.5555 30.9842 27.7078 31.9725 27.7782 32.9256C27.9266 34.8045 27.8563 36.7147 27.7899 38.5662L27.6024 43.32Z" fill="black"/>
<path d="M18.2118 31.289C18.1611 30.6171 18.0009 30.328 17.8603 30.039C17.7587 29.8475 17.6611 29.6483 17.5986 29.3593C16.8486 25.7812 16.0986 22.2109 15.3486 18.6403C14.8603 16.3122 14.3486 13.902 13.3681 11.6715C12.9892 10.8004 12.5282 9.94097 12.079 9.11287C11.7196 8.43318 11.3407 7.74177 11.0087 7.03477C10.079 5.06597 9.68837 3.43317 9.77817 1.89417L10.1766 1.71448C12.3875 3.44498 14.3875 5.45278 16.118 7.66368L15.7274 7.97227C14.1258 5.92147 12.2977 4.05037 10.2665 2.42147C10.286 3.74177 10.6766 5.15197 11.4657 6.83167C11.7938 7.53089 12.1649 8.22227 12.5243 8.89027C12.9735 9.73011 13.4461 10.6012 13.8329 11.4919C14.8329 13.7731 15.3446 16.2028 15.8446 18.5622C16.5946 22.1325 17.3446 25.7106 18.0946 29.2812C18.1454 29.4999 18.2157 29.6523 18.3133 29.8319C18.4735 30.1405 18.6532 30.5038 18.7235 31.2733L18.2118 31.289Z" fill="black"/>
<path d="M30.0899 21.801L29.5899 21.7815C29.668 19.8323 29.3906 18.0315 29.1016 16.1213C28.9805 15.3322 28.8633 14.5315 28.7617 13.7111C28.5235 11.6994 28.3633 9.19937 29.043 6.82047C26.7539 9.91027 24.9141 13.6603 23.8047 17.5395L23.3242 17.3989C24.6054 12.9184 26.8437 8.60975 29.6445 5.25085L30.0664 5.52038C28.8164 8.20008 28.9883 11.2704 29.2656 13.6493C29.3672 14.4696 29.4844 15.2587 29.6055 16.0477C29.8906 17.9813 30.1719 19.801 30.0899 21.801Z" fill="black"/>
<path d="M27.8204 36.172L27.4219 35.8712C29.8633 32.6407 32.4336 29.172 34.711 25.4492C37.8829 20.2695 40.4298 14.6402 42.8594 9.14024C41.7188 10.1597 40.4492 11.0191 39.1992 11.859C38.0508 12.6403 36.8594 13.4371 35.8008 14.359C32.5625 17.1598 30.4219 21.1793 28.5313 24.718C28.1524 25.4368 27.6915 26.2492 27.2422 27.0578C26.793 27.8664 26.3321 28.6789 25.9531 29.3859L25.5117 29.1477C25.8906 28.4289 26.3516 27.6165 26.8008 26.8079C27.2501 25.9993 27.711 25.1868 28.0899 24.4798C30.0001 20.9017 32.168 16.8509 35.4688 13.9798C36.5469 13.0384 37.75 12.2298 38.918 11.4407C40.4961 10.3821 42.1289 9.26876 43.4297 7.87036L43.8399 8.13989C41.2383 14.0305 38.5508 20.1089 35.129 25.6989C32.8399 29.4489 30.2618 32.9295 27.8204 36.172Z" fill="black"/>
<path d="M27.6484 39.91L27.2969 39.5506C29.8477 37.0818 32.2071 34.1287 34.4883 31.2889C35.3984 30.16 36.2969 29.0389 37.1992 27.9608C39.8984 24.7225 43.1992 21.121 47.3592 18.5702C46.5701 18.7616 45.8006 19.1796 44.9608 19.6718L35.3319 25.3124L35.0819 24.8827L44.7108 19.2421C45.7499 18.6328 47.0506 17.8632 48.4608 17.9804L48.5623 18.4492C44.0232 20.9609 40.4725 24.8281 37.5933 28.2773C36.6949 29.3554 35.7925 30.4687 34.8941 31.5976C32.5894 34.4609 30.2187 37.41 27.6484 39.91Z" fill="black"/>
<path d="M27.5781 46.629L27.0898 46.5274C27.5391 44.336 29.3007 41.4571 31.1679 39.8282C32.6874 38.5079 34.4374 37.4688 36.1288 36.4571L36.9101 36.0001C38.6992 34.9298 40.7382 33.629 42.289 31.9103C43.3671 30.6994 44.3007 29.1798 45.0976 27.3009C44.1679 28.0118 42.9062 28.5001 41.3359 28.7697C40.6445 28.8908 39.9843 28.9416 39.3476 28.9884C38.4179 29.0666 37.5468 29.1369 36.5976 29.3869L36.4687 28.9064C37.457 28.6369 38.3984 28.5548 39.3085 28.4845C39.9296 28.4337 40.578 28.383 41.2499 28.2658C43.2382 27.9259 44.6913 27.215 45.5585 26.1564L45.9882 26.4064C45.0663 28.8556 43.9765 30.758 42.6601 32.2345C41.0703 34.0157 38.9882 35.3361 37.1718 36.4259L36.4022 36.8868C34.7225 37.8868 32.992 38.9063 31.5116 40.1954C29.7304 41.7501 28.0117 44.5704 27.5781 46.629Z" fill="black"/>
<path d="M44.4492 59.02C42.8203 58.2388 41.8281 56.6606 40.8789 55.1294L40.6484 54.7583C39.5195 52.9692 38.2578 51.2466 36.8789 49.6489C36.0703 48.7075 35.168 47.7505 34.0703 47.0395C32.8984 46.3012 31.6406 45.9692 30.5117 46.0981C29.3515 46.2387 27.5625 47.9965 27.1133 49.1567L26.6328 49.0356C26.7227 48.3442 27.7109 46.6645 28.5117 46.0044C29.293 45.3638 30.2031 44.9536 31.0898 44.5552C32.0781 44.106 33.3203 43.5435 34.5781 43.7037C35.4375 43.813 36.289 44.2349 37.1797 45.0045C39.2188 46.7662 40.418 49.235 41.4102 51.6451C41.5821 52.0552 41.7383 52.4654 41.9102 52.8834C42.6993 54.8639 43.5118 56.9029 44.75 58.6451L44.4492 59.02ZM31.0112 45.571C32.101 45.571 33.2612 45.9304 34.3315 46.6218C35.4917 47.3601 36.4212 48.3601 37.2533 49.321C38.6439 50.9421 39.9331 52.6804 41.0737 54.4929L41.3041 54.864C42.0033 55.9929 42.726 57.1531 43.7143 57.9538C42.7846 56.4147 42.1127 54.7155 41.4526 53.0749C41.2807 52.6647 41.1245 52.2546 40.9526 51.8444C39.9839 49.4928 38.8237 47.0827 36.8628 45.3952C36.0425 44.696 35.2847 44.3054 34.523 44.2038C33.4019 44.0632 32.2339 44.5944 31.3042 45.0124C30.6558 45.3014 29.9839 45.6139 29.3823 46.0007C29.7534 45.7897 30.1206 45.6491 30.4526 45.61C30.6284 45.5788 30.8198 45.571 31.0112 45.571Z" fill="black"/>
<path d="M28.2383 47.1801L27.7695 47.0199C28.5 44.8597 31.1406 42.641 33.2578 41.6488C34.1797 41.2191 35.1484 40.8676 36.0781 40.5277C37.1992 40.1175 38.3672 39.6879 39.4375 39.1371C39.8985 38.8988 40.3672 38.6254 40.8086 38.3558C41.3086 38.0551 41.8281 37.7543 42.3594 37.4848C43.5899 36.8637 44.668 36.5863 45.6875 36.6332C46.5274 36.6723 47.3086 36.9535 47.8984 37.4027C47.75 36.8324 47.6601 36.2543 47.6172 35.6644C45.7774 34.8832 43.7188 34.7426 41.7969 35.266C40.3672 35.6566 39.0469 36.3949 37.7657 37.1176L32.6055 40.0082C31.1641 40.8168 28.6953 43.7894 28.6758 43.8168L28.2969 43.4965C28.3984 43.3676 30.8477 40.4184 32.3672 39.5668L37.5274 36.6762C38.836 35.9457 40.1876 35.1879 41.6758 34.7856C43.7539 34.2153 45.9961 34.395 47.9649 35.2661L48.1133 35.477C48.1641 36.4575 48.375 37.4262 48.7227 38.3364L48.2735 38.5473C47.793 37.7192 46.793 37.1684 45.6641 37.1176C44.7422 37.0786 43.7344 37.3364 42.5743 37.9184C42.0547 38.1801 41.5431 38.477 41.0548 38.77C40.6056 39.0395 40.1329 39.309 39.6642 39.559C38.5626 40.1293 37.383 40.559 36.2423 40.9809C35.3204 41.3208 34.3634 41.6723 33.4611 42.0903C31.4103 43.0591 28.8985 45.2192 28.2383 47.1801Z" fill="black"/>
<path d="M46.6719 53.828L46.2031 53.6679C46.375 52.996 45.8633 52.2968 45.3047 51.9882C44.664 51.6288 43.875 51.578 43.1133 51.5468H42.9844C42.2148 51.5155 41.4258 51.496 40.6953 51.1757L40.8945 50.7147C41.5429 50.9843 42.2851 51.0155 43.0156 51.0428H43.1445C43.9648 51.0741 44.8242 51.1327 45.5664 51.5428C45.9258 51.7421 46.2578 52.0546 46.4883 52.4335C46.4883 51.6053 46.1875 50.7147 45.6094 49.953C44.9179 49.0545 43.8789 48.3124 42.3477 47.6327C40.8868 46.9842 39.3594 46.5116 37.7891 46.2421L37.8789 45.7538C39.4883 46.035 41.0703 46.5155 42.5586 47.1757C44.168 47.8944 45.2695 48.6874 46.0078 49.6562C46.9492 50.9414 47.2187 52.5702 46.6719 53.828Z" fill="black"/>
<path d="M11.0508 40.1601C8.25 38.8906 6.2227 36.6796 5 35.0507L5.30859 34.6796C7.29689 35.6991 9.21879 36.328 11.3672 36.6601L11.2891 37.1483C9.43747 36.8593 7.75787 36.3593 6.05857 35.5897C7.25777 37.0311 8.99997 38.6795 11.2383 39.6991L11.0508 40.1601Z" fill="black"/>
<path d="M22.6403 95.781C22.2419 95.781 21.8513 95.7693 21.4606 95.7693L20.0895 95.7498C19.0895 95.7302 17.9801 95.6482 17.2614 94.8592L13.32 95.0076L12.8786 94.2381C13.3786 93.4685 14.07 92.8279 14.8786 92.3865C14.5895 92.1169 14.1677 91.8865 13.6403 91.7146C12.8395 91.4529 12.0895 91.1443 11.6012 90.9333C11.0231 90.6833 10.1012 89.9841 9.5621 89.2536L9.93319 88.4529C10.3238 88.4333 10.7144 88.4411 11.1051 88.4841C9.93319 85.9958 9.24569 84.6833 8.30429 83.5739L8.79257 82.7653C9.15195 82.8434 9.49179 83.0036 9.83167 83.1638C9.74183 82.9841 9.64027 82.7927 9.5309 82.613C9.08949 81.7927 8.58949 80.8747 8.5309 79.9841C8.49183 79.406 8.54261 78.8357 8.58167 78.2849C8.61292 77.945 8.63246 77.6052 8.64027 77.2537C8.67152 75.2849 8.05043 73.3318 7.44887 71.4529L8.06996 70.824L8.85902 71.0544L8.62855 68.1052L8.37855 65.906L9.26917 65.5467L9.48011 65.8162C9.62073 65.2068 9.76917 64.535 9.7887 64.406C9.99964 62.8474 9.93714 61.2654 9.61683 59.7263L10.4059 59.2263C10.8043 59.5271 11.1559 59.8747 11.445 60.2771C11.7731 59.7654 11.9059 59.1052 11.7653 58.5154C10.9059 58.1638 10.4762 57.117 10.6169 56.2146C10.7575 55.3435 11.2888 54.6443 11.7575 54.0232C11.8864 53.7029 12.0661 53.3943 12.2887 53.074C11.8395 53.0349 11.3591 52.9021 10.8278 52.6951C10.5896 52.6052 10.3591 52.4958 10.1286 52.3943C9.6091 52.1638 9.11693 51.9451 8.60913 51.8435C8.05054 51.7341 7.23803 51.7732 6.80833 52.2849L5.99974 52.1794C5.58958 51.3005 6.1013 50.2888 6.76927 49.8005C6.78099 49.7888 6.80052 49.781 6.80833 49.7693C6.5388 49.7185 6.2888 49.6677 6.09739 49.6482C5.32786 49.5466 4.42549 49.7185 4.13649 50.3279L3.2654 50.3865C2.75368 49.5974 2.91384 48.4373 3.63649 47.6951C4.66769 46.6248 6.24589 46.6639 7.79669 46.867L9.27719 47.0584C8.78891 46.8201 8.29672 46.617 7.74599 46.4568C6.24599 46.0076 5.43739 45.6053 4.53509 44.8865C4.13665 44.5662 3.46479 44.0076 3.34369 43.8279L3.63275 43.0779C4.87105 42.7381 6.15225 42.7771 7.37105 42.906C6.08985 42.0467 4.60155 41.4451 3.24215 40.906L3.38277 39.9451C5.36327 39.7459 7.39447 39.8435 9.35157 40.2263C9.19141 40.1248 9.03126 40.0154 8.86329 39.9178C8.35157 39.5974 7.84379 39.2693 7.35159 38.9178C5.57039 37.6366 4.52349 36.2264 4.23049 34.7186L4.94143 34.1795C6.41023 34.91 7.88283 35.449 9.31253 35.7811C8.78128 35.1913 8.28133 34.5897 7.78133 33.9999C7.17977 33.2811 6.57043 32.5702 5.92973 31.8788C4.12893 29.9374 2.48833 28.7499 0.769531 28.1405V27.1991C2.32033 26.6483 4.16793 26.7499 5.96093 27.4686C6.78124 27.7967 7.58203 28.2381 8.42973 28.8475C8.19145 28.4256 7.91801 28.0194 7.6602 27.5975C7.35161 27.0975 7.03911 26.6092 6.75004 26.0975C5.53914 23.9959 5.07814 22.1756 5.33984 20.5389L6.26953 20.367C6.69922 21.1288 7.14844 21.8279 7.58983 22.4568C7.03124 20.8357 6.07813 19.3279 5.08983 17.7459C3.82813 15.7342 2.53123 13.6561 2.05863 11.285L2.96879 10.9061C4.92969 13.8163 7.42969 16.4256 9.83989 18.9647C12.1602 21.3944 14.5313 23.8866 16.4688 26.6639C16.0196 24.8827 15.668 23.0741 15.3204 21.3045C14.5509 17.3631 13.7618 13.285 11.8595 9.73454C11.629 9.29313 11.3712 8.86345 11.1212 8.43374C10.6212 7.58218 10.1095 6.69544 9.72281 5.74234C9.23453 4.53144 8.7814 2.73064 9.43375 1.01184L10.2931 0.871216C12.0626 3.06262 14.0939 5.06262 16.3126 6.80092C16.6407 7.06264 16.9845 7.32045 17.3243 7.57045C18.2462 8.26967 19.2032 8.99235 20.0548 9.82045C21.5939 11.3204 22.7853 13.1407 23.5236 15.1407C24.715 11.9493 26.6838 8.58215 29.4025 5.10975L30.2736 5.5785C28.9142 9.6293 29.6017 15.4379 30.3049 19.7195C31.2346 17.5476 32.9768 15.4383 35.4963 13.4304C36.5158 12.6218 37.5979 11.8601 38.6369 11.1218C40.2775 9.9616 41.965 8.7702 43.426 7.3718L44.2268 7.93039C42.0159 13.0788 39.7385 18.3914 36.8479 23.3214C37.887 22.6612 38.8791 22.1105 39.8987 21.5402C41.0589 20.8917 42.2697 20.2121 43.6994 19.3097C45.3596 18.2706 47.7581 16.9503 49.4183 17.5089L49.5276 18.4073C45.3088 21.0675 41.5784 24.3487 38.4256 28.169C38.9842 28.0909 39.5467 28.0479 40.1053 28.0206C40.996 27.9698 41.8358 27.919 42.6365 27.6807C43.7068 27.3604 44.656 26.6925 45.2381 25.8604L46.1483 26.2003C45.8202 29.1495 44.0702 31.4894 42.6678 32.9386C42.1795 33.4503 41.6873 33.9191 41.2069 34.3605C41.7967 34.1808 42.4061 34.0402 43.035 33.9503C44.5233 33.7394 46.6834 33.7784 48.5038 35.1808L48.703 35.5597C48.7343 36.3097 48.8319 37.048 48.9413 37.9113L49.0624 38.8606L48.1913 39.2512C47.2304 38.1496 45.6327 37.6418 44.203 37.9895C42.8124 38.3293 41.3514 38.9192 40.1913 39.6106C38.2694 40.759 36.1522 41.7317 34.3319 42.5325C32.7303 43.2317 31.6405 43.9739 30.91 44.6028C32.1092 44.0715 33.5702 43.5325 34.5194 43.4934C36.3905 43.4152 37.4882 44.0246 38.5585 45.7317C40.0194 45.97 41.5273 46.2434 42.9491 46.8215C44.1483 47.3098 45.7889 48.2512 46.7382 49.9231C47.6483 51.5247 47.6366 53.5012 46.7069 54.8723L45.8085 54.4621C46.0468 53.5832 45.4804 52.5402 44.6093 52.2707C44.1991 52.1418 43.7304 52.1613 43.2304 52.1692C42.8788 52.1809 42.5195 52.1887 42.1718 52.1496C43.0234 54.4894 43.9218 56.341 45.4335 58.841L45.0116 59.6027C43.9804 59.6145 43.2811 59.4113 42.6327 58.8645L42.2421 59.0949C40.5233 57.6965 38.3515 56.8761 36.1405 56.7863L35.7499 56.7746C35.1405 56.7551 34.4687 56.7356 33.828 56.5754C34.0975 57.7863 34.7186 59.0559 35.6092 60.2551C35.6873 59.4465 35.8787 58.5832 36.1482 57.8645L37.0975 57.9036C38.1287 61.7239 38.8163 63.6224 39.1991 64.5247C39.3983 64.1965 39.66 63.8059 39.9295 63.3958L40.828 63.7942C40.367 65.6145 40.4374 66.6145 40.4999 67.4231C40.5584 68.2434 40.6209 68.9622 40.0506 70.0325C40.5389 72.1927 41.0623 74.6106 40.5194 76.9739C40.5077 77.0325 40.4881 77.095 40.4803 77.1536L40.9608 76.8333L41.6991 77.052C41.9881 77.7239 41.9373 78.552 41.5506 79.3801C41.3397 79.8293 41.0702 80.22 40.8123 80.5989C40.6913 80.7708 40.5819 80.9388 40.4725 81.1185C40.4608 81.1302 40.453 81.1497 40.4413 81.1575C40.5311 81.1067 40.6131 81.056 40.703 81.0091L41.4139 81.5989C40.8631 83.427 40.1834 85.2473 39.4022 87.0091C39.8827 86.9076 40.3827 86.8099 40.871 86.7396L41.3515 87.5208C40.2421 89.1106 38.5312 90.052 36.8906 90.9622C36.4492 91.2005 36.0117 91.4505 35.5898 91.7005C35.2187 91.9193 34.8515 92.1615 34.4882 92.3919C33.8593 92.7904 33.1991 93.2122 32.5194 93.5716C31.2499 94.2318 30.0897 94.5404 28.9999 94.5326C27.8397 95.1419 26.5311 95.5326 25.0897 95.7123C24.2811 95.7631 23.4608 95.7826 22.6405 95.7826L22.6403 95.781ZM17.4801 93.8513L17.9098 94.0623C18.3395 94.6717 19.2301 94.7341 20.1207 94.742L21.4918 94.7615C22.6402 94.781 23.8434 94.8006 24.9801 94.6521C26.3395 94.4802 27.5817 94.1013 28.652 93.5232L28.9137 93.4646C29.8747 93.5037 30.9137 93.2263 32.0739 92.6131C32.7224 92.2732 33.3551 91.8748 33.9645 91.4842C34.3356 91.2459 34.7145 91.0037 35.0934 90.7732C35.5231 90.5115 35.9723 90.2615 36.4215 90.0115C37.5934 89.3631 38.7223 88.742 39.6207 87.9099C39.2926 87.9802 38.9723 88.0505 38.652 88.1286L38.0934 87.4294C38.8121 85.9099 39.445 84.3396 39.984 82.7497C39.9254 82.8083 39.8746 82.8786 39.8121 82.9489L38.9215 82.6482C38.902 81.7771 39.3121 81.0076 39.6324 80.5193C39.7535 80.3279 39.8707 80.1482 40.0035 79.9685C40.2535 79.5974 40.484 79.2575 40.6637 78.8904C40.8043 78.5896 40.8824 78.2888 40.8941 78.0193L39.4253 79.0076L38.8043 78.2263C39.1558 77.8982 39.4058 77.3865 39.5738 76.6677C40.0855 74.4685 39.5425 72.0896 39.0621 69.988L39.1128 69.6286C39.6246 68.7302 39.5933 68.238 39.523 67.4177C39.4918 66.9685 39.4527 66.4373 39.4918 65.738L38.773 65.7771C38.6949 65.6677 38.0347 64.6873 36.6636 59.9255C36.5855 60.4841 36.562 61.0349 36.605 61.4958L35.7339 61.8864C34.0034 59.9958 32.9058 57.777 32.7144 55.7848L33.4449 55.2966C34.1051 55.6481 34.9644 55.6755 35.7965 55.7067L36.1949 55.7184C38.3746 55.8083 40.5152 56.5466 42.2965 57.8082L42.8473 57.57C43.2575 58.0817 43.6168 58.3512 44.0973 58.4684C42.6871 56.0387 41.7965 54.0778 40.9254 51.527L41.6246 50.9254C42.066 51.1559 42.6246 51.1364 43.2144 51.1246C43.773 51.1051 44.3433 51.0934 44.9136 51.2653C45.5425 51.4645 46.0738 51.9059 46.4136 52.4567C46.4253 51.7574 46.2418 51.027 45.8629 50.3669C45.0543 48.945 43.6245 48.1286 42.562 47.695C41.1714 47.1247 39.6401 46.8747 38.1518 46.6247L37.8003 46.3864C36.8784 44.8356 36.0698 44.3669 34.5386 44.4372C33.1988 44.4958 30.2886 45.8981 29.2769 46.4255L28.5777 45.8044C28.6167 45.7146 29.5269 43.4841 33.898 41.5661C35.6871 40.777 37.7691 39.8278 39.648 38.7067C40.8863 37.9684 42.4566 37.3356 43.9371 36.9684C45.2652 36.6403 46.7262 36.9176 47.8785 37.6598C47.8003 37.0192 47.7183 36.4098 47.6871 35.8004C46.1754 34.7496 44.398 34.7223 43.148 34.902C41.3472 35.1637 39.6285 35.9332 38.3394 36.5817C38.1987 36.652 38.0581 36.7223 37.9175 36.7926C37.4956 37.0543 37.0776 37.2809 36.648 37.484C36.3081 37.6559 35.9995 37.8121 35.7183 37.9645C35.4175 38.1364 35.1167 38.316 34.8199 38.4957C34.3199 38.8043 33.8784 39.1168 33.4215 39.445C33.0308 39.7145 32.6324 40.0035 32.1598 40.316L31.5816 39.4957C32.5113 38.7848 33.4214 38.1754 34.3511 37.6168C34.6129 37.4567 34.8902 37.2887 35.2027 37.1168C35.9214 36.7067 36.6636 36.3161 37.441 35.9176C38.9098 35.0192 40.3902 33.7965 41.941 32.2067C42.9605 31.1559 44.1793 29.5973 44.7926 27.6755C44.234 28.0857 43.5934 28.406 42.9215 28.6052C42.0113 28.8748 41.0699 28.9334 40.1715 28.9841C39.152 29.0427 38.1832 29.1052 37.3004 29.4451L36.7223 28.6756C39.7614 24.7342 43.3942 21.324 47.5113 18.5036C46.6402 18.7536 45.5504 19.2926 44.2418 20.1247C42.7809 21.0465 41.5699 21.7263 40.3902 22.3864C38.8004 23.277 37.2886 24.1247 35.5308 25.3981L34.8198 24.7262C37.851 19.945 40.2104 14.6952 42.4409 9.53517C41.3901 10.375 40.2925 11.1563 39.2104 11.9141C38.1792 12.6445 37.1088 13.3946 36.1206 14.1953C33.0112 16.6758 31.1792 19.2734 30.6597 21.9336L29.6793 21.9219C28.8394 17 28.1012 11.8989 28.7691 7.67185C26.4879 10.8907 24.8902 13.9922 24.0074 16.9102L23.0465 16.8906C22.4371 14.4687 21.1676 12.2812 19.3746 10.539C18.566 9.74996 17.6363 9.05072 16.734 8.36712C16.3941 8.1054 16.0426 7.84759 15.7028 7.57806C13.6989 5.99996 11.8395 4.21086 10.1716 2.26166C10.0231 3.39056 10.3434 4.53116 10.6716 5.35146C11.0309 6.23037 11.4997 7.05066 12.0114 7.91006C12.2731 8.35147 12.5309 8.78897 12.7731 9.23816C14.7419 12.9179 15.5543 17.0663 16.3317 21.0902C16.9606 24.3207 17.6129 27.6683 18.8629 30.7191L17.941 31.1175C15.9098 26.7269 12.4722 23.1175 9.1402 19.6295C7.4683 17.8678 5.7496 16.0787 4.191 14.1607C4.71053 15.1998 5.3394 16.1998 5.9605 17.1802C7.3394 19.3911 8.7808 21.6802 9.0816 24.3404L8.22222 24.7388C7.60113 24.0904 6.99172 23.2974 6.38242 22.399C6.5543 23.36 6.97226 24.4107 7.63242 25.5709C7.91367 26.0592 8.22226 26.5514 8.52305 27.0318C9.19492 28.1021 9.89415 29.2115 10.3629 30.442L9.56988 31.0006C8.08158 29.692 6.85898 28.8795 5.60898 28.3795C4.58948 27.9694 3.55818 27.7897 2.59728 27.8405C3.94888 28.5709 5.27698 29.6608 6.68708 31.1803C7.33552 31.8795 7.95658 32.6217 8.56598 33.3287C9.37457 34.2779 10.2066 35.2701 11.0972 36.1568L10.6753 37.0083C9.0151 36.7896 7.3159 36.2974 5.5972 35.5474C6.04642 36.4263 6.8277 37.2779 7.9566 38.0786C8.42535 38.4185 8.92535 38.7271 9.4175 39.0474C10.3277 39.6255 11.2691 40.2193 12.0777 40.9771L11.5777 41.8169C9.6988 41.188 7.6988 40.8482 5.6988 40.8169C7.0504 41.438 8.3785 42.1958 9.4488 43.2857L9.00739 44.1256C7.69879 43.9146 6.24569 43.6763 4.86679 43.8248C4.98788 43.9263 5.08554 44.0162 5.15585 44.0631C5.94491 44.7037 6.64415 45.0435 8.02695 45.4537C9.44885 45.8833 10.5465 46.5123 11.8551 47.3951L11.5152 48.3052L7.66361 47.8169C6.37451 47.6568 5.07381 47.606 4.35501 48.356C4.17532 48.5474 4.05423 48.7779 3.99563 49.0162C4.65579 48.606 5.52683 48.5279 6.22613 48.6177C6.53472 48.6568 6.98785 48.7466 7.47613 48.8482C8.39801 49.0279 9.64803 49.2779 10.2144 49.2271L10.3433 50.2154C10.1129 50.2544 9.74178 50.274 9.32384 50.2935C8.72228 50.3248 7.59334 50.3833 7.34334 50.563C7.20272 50.6646 7.08162 50.8013 6.99178 50.9537C7.59334 50.7232 8.26128 50.7232 8.81208 50.8326C9.43317 50.9615 9.99178 51.2115 10.5426 51.4537C10.7613 51.5552 10.984 51.6529 11.2145 51.7427C12.066 52.0826 12.734 52.1529 13.2731 51.9732L13.8121 52.7818C13.2106 53.4419 12.8824 53.9302 12.6715 54.4537L12.6012 54.5748C12.1598 55.1451 11.7106 55.7232 11.6129 56.356C11.5348 56.8677 11.8043 57.5162 12.2731 57.606L12.652 57.9263C13.0934 59.1568 12.7028 60.6177 11.7106 61.4654L10.9411 61.3169C10.9098 61.2662 10.8825 61.2154 10.8512 61.1568C10.9528 62.2779 10.9293 63.4068 10.7809 64.5279L10.7301 64.5162V64.5552C10.6793 64.9654 10.5192 65.6958 10.2184 67.024L9.51918 67.1842L9.60902 67.9732L9.87856 71.4615L9.82777 71.7311L9.74965 71.9029L9.17153 72.1529L8.68325 72.0123C9.20278 73.692 9.66372 75.4342 9.63247 77.2506C9.62075 77.61 9.60122 77.9694 9.57388 78.3287C9.53481 78.8678 9.49575 79.3795 9.52309 79.8873C9.56216 80.5592 9.99184 81.3482 10.402 82.1061C10.7536 82.7546 11.0934 83.3678 11.1911 83.9342L10.5895 84.5124C10.4176 84.4733 10.2614 84.4225 10.0895 84.3522C10.8004 85.5006 11.4801 86.9303 12.3981 88.9225L11.8083 89.6139C11.609 89.5553 11.3981 89.5123 11.1989 89.485C11.4879 89.7155 11.7692 89.8951 11.9801 89.985C12.4489 90.1842 13.1715 90.485 13.9293 90.735C14.9684 91.0748 15.691 91.6061 16.0699 92.3053L15.8199 93.0045C15.2887 93.2154 14.8004 93.5358 14.3785 93.9342L17.4801 93.8513Z" fill="black"/>
</svg>
